HIERARCHY
ROOT Hips
{
	OFFSET 0.000000 0.000000 0.000000
	CHANNELS 6 Xposition Yposition Zposition Xrotation Yrotation Zrotation
	JOINT LeftUpLeg_virtual
	{
		OFFSET 0.000000 0.000000 0.000000
		CHANNELS 3 Xrotation Yrotation Zrotation
		JOINT LeftUpLeg
		{
			OFFSET 10.205400 -3.823500 0.155100
			CHANNELS 3 Xrotation Yrotation Zrotation
			JOINT LeftLeg
			{
				OFFSET 0.708757 -12.982077 0.567790
				CHANNELS 3 Xrotation Yrotation Zrotation
				JOINT LeftFoot
				{
					OFFSET -0.708756 -10.717838 -2.184338
					CHANNELS 3 Xrotation Yrotation Zrotation
					JOINT LeftToeBase
					{
						OFFSET 0.108149 -7.191104 7.560241
						CHANNELS 3 Xrotation Yrotation Zrotation
						JOINT LeftToe_End
						{
							OFFSET 0.070230 0.081724 4.490308
							CHANNELS 3 Xrotation Yrotation Zrotation
							End Site
							{
								OFFSET 0 0 0
							}
						}
					}
				}
			}
		}
	}
	JOINT RightUpLeg_virtual
	{
		OFFSET 0.000000 0.000000 0.000000
		CHANNELS 3 Xrotation Yrotation Zrotation
		JOINT RightUpLeg
		{
			OFFSET -10.205400 -3.823500 0.005500
			CHANNELS 3 Xrotation Yrotation Zrotation
			JOINT RightLeg
			{
				OFFSET -0.708756 -12.982134 0.610632
				CHANNELS 3 Xrotation Yrotation Zrotation
				JOINT RightFoot
				{
					OFFSET 0.708754 -10.717769 -1.945823
					CHANNELS 3 Xrotation Yrotation Zrotation
					JOINT RightToeBase
					{
						OFFSET -0.108140 -7.191069 7.372968
						CHANNELS 3 Xrotation Yrotation Zrotation
						JOINT RightToe_End
						{
							OFFSET -0.070227 0.081735 4.479403
							CHANNELS 3 Xrotation Yrotation Zrotation
							End Site
							{
								OFFSET 0 0 0
							}
						}
					}
				}
			}
		}
	}
	JOINT Spine_virtual
	{
		OFFSET 0.000000 0.000000 0.000000
		CHANNELS 3 Xrotation Yrotation Zrotation
		JOINT Spine
		{
			OFFSET 0.000000 6.876099 0.125700
			CHANNELS 3 Xrotation Yrotation Zrotation
			JOINT Spine1
			{
				OFFSET 0.000000 5.730043 0.104720
				CHANNELS 3 Xrotation Yrotation Zrotation
				JOINT Spine1_split
				{
					OFFSET 0.000000 5.730043 0.104720
					CHANNELS 3 Xrotation Yrotation Zrotation
					JOINT Spine2
					{
						OFFSET 0.000000 5.730043 0.104720
						CHANNELS 3 Xrotation Yrotation Zrotation
						JOINT Neck_virtual
						{
							OFFSET 0.000000 0.000000 0.000000
							CHANNELS 3 Xrotation Yrotation Zrotation
							JOINT Neck
							{
								OFFSET 0.000000 10.314075 0.188496
								CHANNELS 3 Xrotation Yrotation Zrotation
								JOINT Head
								{
									OFFSET 0.000000 7.643700 -2.377400
									CHANNELS 3 Xrotation Yrotation Zrotation
									JOINT HeadTop_End
									{
										OFFSET 0.000000 43.788605 -13.619600
										CHANNELS 3 Xrotation Yrotation Zrotation
										End Site
										{
											OFFSET 0 0 0
										}
									}
								}
							}
						}
						JOINT LeftShoulder_virtual
						{
							OFFSET 0.000000 0.000000 0.000000
							CHANNELS 3 Xrotation Yrotation Zrotation
							JOINT LeftShoulder
							{
								OFFSET 2.196100 4.412489 0.087492
								CHANNELS 3 Xrotation Yrotation Zrotation
								JOINT LeftShoulder_split
								{
									OFFSET 2.196100 4.412489 0.087492
									CHANNELS 3 Xrotation Yrotation Zrotation
									JOINT LeftArm
									{
										OFFSET 8.771219 -2.981674 -0.026999
										CHANNELS 3 Xrotation Yrotation Zrotation
										JOINT LeftForeArm
										{
											OFFSET 8.512804 0.000000 -0.000000
											CHANNELS 3 Xrotation Yrotation Zrotation
											JOINT LeftHand
											{
												OFFSET 18.484802 0.000000 -0.000000
												CHANNELS 3 Xrotation Yrotation Zrotation
												End Site
												{
													OFFSET 0 0 0
												}
											}
										}
									}
								}
							}
						}
						JOINT RightShoulder_virtual
						{
							OFFSET 0.000000 0.000000 0.000000
							CHANNELS 3 Xrotation Yrotation Zrotation
							JOINT RightShoulder
							{
								OFFSET -2.196100 4.412496 0.070690
								CHANNELS 3 Xrotation Yrotation Zrotation
								JOINT RightShoulder_split
								{
									OFFSET -2.196100 4.412496 0.070690
									CHANNELS 3 Xrotation Yrotation Zrotation
									JOINT RightArm
									{
										OFFSET -8.771282 -2.981682 -0.094208
										CHANNELS 3 Xrotation Yrotation Zrotation
										JOINT RightForeArm
										{
											OFFSET -8.494598 0.000000 0.000000
											CHANNELS 3 Xrotation Yrotation Zrotation
											JOINT RightHand
											{
												OFFSET -18.483803 0.000000 0.000001
												CHANNELS 3 Xrotation Yrotation Zrotation
												End Site
												{
													OFFSET 0 0 0
												}
											}
										}
									}
								}
							}
						}
					}
				}
			}
		}
	}
}
MOTION
Frames: 9
Frame Time: 0.03333333
0.452727 32.826878 0.591990 0.000000 0.000000 0.000000 -1.608761 6.868406 1.148736 -0.368705 7.678115 7.224068 22.691830 -3.138430 -4.649337 -26.299442 2.555563 -7.592163 -0.338134 0.215102 0.951311 0.000000 0.000000 0.000000 -1.758746 6.018241 0.604787 7.559320 -3.710560 -9.604296 19.494055 -4.890129 8.218593 -19.820907 -20.961968 3.801955 -3.938746 -0.680465 -1.100212 0.000000 0.000000 0.000000 -0.844974 5.162914 0.150417 -1.575433 -1.949766 -2.680966 0.686969 -0.253658 1.971164 1.767813 -1.441161 -0.094095 0.000000 0.000000 0.000000 0.204736 -0.122068 1.414927 7.418183 1.688384 -0.933707 -2.952341 -0.139660 2.517951 0.000000 0.000000 0.000000 0.803147 0.302461 1.075787 6.742315 -24.903601 -5.943703 -0.443515 -2.402954 -1.798538 6.834646 5.118611 -79.740355 -2.271703 -16.407627 1.739005 0.000000 0.000000 0.000000 0.607105 0.226933 1.988425 1.970476 -6.036809 9.378155 0.754082 6.295825 -0.666734 7.023878 18.128302 72.870120 1.455432 15.111411 -0.568543 0.000000 0.000000 0.000000 
0.394811 32.812325 0.536951 0.000000 0.000000 0.000000 -1.612604 6.991035 1.160213 -0.325838 7.857421 7.213505 22.727586 -3.212555 -4.703667 -26.390002 2.493795 -7.473450 -0.330313 0.209158 1.000034 0.000000 0.000000 0.000000 -1.751465 6.087133 0.610877 7.511670 -3.752943 -9.542011 19.660131 -4.930935 8.230599 -19.910510 -20.927348 3.753816 -3.924412 -0.656461 -1.148212 0.000000 0.000000 0.000000 -0.864721 4.996215 0.278398 -1.598925 -1.952851 -2.733590 0.640358 -0.274586 1.934193 1.698920 -1.442868 -0.084903 0.000000 0.000000 0.000000 0.210957 -0.113156 1.378656 7.526326 1.710781 -1.074176 -2.922558 0.004671 2.386341 0.000000 0.000000 0.000000 0.779144 0.288590 1.047688 6.790383 -24.907490 -5.977621 -0.409801 -2.218993 -2.030112 6.736290 4.840774 -79.874992 -2.289067 -16.614650 1.715003 0.000000 0.000000 0.000000 0.578381 0.221732 2.002184 1.942925 -6.044128 9.364949 0.654569 6.604695 -0.721618 7.217630 18.000453 72.826366 1.508973 15.068249 -0.638680 0.000000 0.000000 0.000000 
0.336580 32.792267 0.515965 0.000000 0.000000 0.000000 -1.672974 7.080390 1.171616 -0.216768 8.010622 7.203408 22.673754 -3.282133 -4.710175 -26.442212 2.488909 -7.385998 -0.353588 0.202558 1.026001 0.000000 0.000000 0.000000 -1.731204 6.093011 0.625430 7.474579 -3.710587 -9.548033 19.882314 -4.944763 8.270491 -19.762794 -20.862681 3.843430 -4.056229 -0.615001 -1.239118 0.000000 0.000000 0.000000 -0.920764 4.977023 0.406426 -1.592660 -1.924555 -2.780051 0.558165 -0.297132 1.887987 1.603946 -1.330841 0.003551 0.000000 0.000000 0.000000 0.201622 -0.110832 1.357221 7.545834 1.732720 -1.281936 -2.933460 -0.002635 2.288647 0.000000 0.000000 0.000000 0.731616 0.288011 1.036437 6.806658 -24.980059 -6.075322 -0.459314 -2.060007 -2.259332 6.869885 4.175549 -79.789143 -2.155164 -16.778829 1.705450 0.000000 0.000000 0.000000 0.548255 0.210798 1.988399 1.880495 -5.986554 9.420761 0.735585 6.792965 -0.839770 7.170561 18.004514 72.607663 1.508045 15.119590 -0.630738 0.000000 0.000000 0.000000 
0.288915 32.774384 0.539101 0.000000 0.000000 0.000000 -1.770496 7.079190 1.170149 -0.056141 8.105663 7.201689 22.539503 -3.301159 -4.657765 -26.427846 2.528641 -7.331861 -0.375695 0.197510 1.014271 0.000000 0.000000 0.000000 -1.690211 6.079857 0.635929 7.477398 -3.613772 -9.583083 20.077107 -4.946778 8.313410 -19.464031 -20.765489 3.998020 -4.302399 -0.552606 -1.344930 0.000000 0.000000 0.000000 -0.966951 5.089041 0.498852 -1.539193 -1.887140 -2.813092 0.450775 -0.326701 1.840373 1.581004 -1.289092 0.167859 0.000000 0.000000 0.000000 0.174314 -0.115527 1.357634 7.499432 1.787070 -1.503048 -2.959956 -0.152926 2.245043 0.000000 0.000000 0.000000 0.652671 0.292142 1.048761 6.797372 -25.106461 -6.175571 -0.540524 -1.886738 -2.499379 7.177781 3.305926 -79.444574 -1.910720 -16.902488 1.672309 0.000000 0.000000 0.000000 0.499279 0.183732 1.951889 1.789017 -5.864542 9.575570 0.962816 6.779524 -0.900027 6.947166 18.108155 72.295667 1.453794 15.346072 -0.558448 0.000000 0.000000 0.000000 
0.261686 32.766270 0.596132 0.000000 0.000000 0.000000 -1.838754 6.995829 1.141358 0.127462 8.091682 7.219120 22.358284 -3.244831 -4.531035 -26.358448 2.586894 -7.305946 -0.387651 0.195385 0.969602 0.000000 0.000000 0.000000 -1.638361 6.073476 0.625550 7.502458 -3.536315 -9.616651 20.236665 -4.966511 8.346726 -19.101577 -20.642389 4.155573 -4.582405 -0.469871 -1.443156 0.000000 0.000000 0.000000 -0.976092 5.211319 0.529294 -1.416954 -1.857781 -2.821562 0.328777 -0.366908 1.799608 1.623395 -1.314934 0.258121 0.000000 0.000000 0.000000 0.120115 -0.131335 1.379294 7.406423 1.868951 -1.678577 -3.006041 -0.398810 2.258990 0.000000 0.000000 0.000000 0.550879 0.295482 1.082994 6.789185 -25.261569 -6.172699 -0.545834 -1.739937 -2.726734 7.596747 2.390774 -78.869854 -1.640060 -17.082392 1.574782 0.000000 0.000000 0.000000 0.417547 0.134173 1.900637 1.676055 -5.699863 9.805823 1.270963 6.604836 -0.920206 6.607379 18.293367 71.970960 1.364072 15.883299 -0.420849 0.000000 0.000000 0.000000 
0.251889 32.765495 0.661667 0.000000 0.000000 0.000000 -1.852147 6.868211 1.077265 0.323398 7.915280 7.244760 22.185332 -3.099120 -4.311452 -26.288413 2.631664 -7.292570 -0.381008 0.195281 0.908491 0.000000 0.000000 0.000000 -1.593284 6.056019 0.585614 7.501748 -3.544221 -9.631655 20.419971 -5.010021 8.377464 -18.729758 -20.495936 4.330630 -4.865054 -0.376638 -1.522139 0.000000 0.000000 0.000000 -0.953318 5.262020 0.484089 -1.198197 -1.847727 -2.800510 0.203527 -0.420111 1.769152 1.744106 -1.337576 0.336120 0.000000 0.000000 0.000000 0.028388 -0.156931 1.412385 7.288143 1.977952 -1.785302 -3.044046 -0.705123 2.333017 0.000000 0.000000 0.000000 0.426648 0.295486 1.133777 6.803898 -25.422440 -6.000943 -0.417846 -1.644675 -2.907874 7.993758 1.569850 -78.170217 -1.395509 -17.296872 1.396152 0.000000 0.000000 0.000000 0.299176 0.070547 1.841683 1.554288 -5.517200 10.056174 1.666540 6.338570 -0.873709 6.197667 18.524158 71.711010 1.269229 16.727780 -0.231947 0.000000 0.000000 0.000000 
0.265651 32.763344 0.719625 0.000000 0.000000 0.000000 -1.822180 6.711954 0.989953 0.516696 7.573975 7.238269 22.106254 -2.853041 -4.007779 -26.297912 2.642711 -7.294072 -0.362983 0.198665 0.839251 0.000000 0.000000 0.000000 -1.598058 5.984243 0.520825 7.435142 -3.687799 -9.623127 20.716203 -5.068851 8.405532 -18.432119 -20.311675 4.544335 -5.191143 -0.284914 -1.590782 0.000000 0.000000 0.000000 -0.919509 5.173255 0.379285 -0.860594 -1.867804 -2.751671 0.090537 -0.469106 1.753996 1.936863 -1.240492 0.299246 0.000000 0.000000 0.000000 -0.090787 -0.183779 1.446131 7.152337 2.103248 -1.808632 -3.040066 -1.035695 2.440087 0.000000 0.000000 0.000000 0.294974 0.295821 1.193015 6.849468 -25.525249 -5.650741 -0.169502 -1.605876 -3.049638 8.233357 0.898497 -77.507457 -1.186872 -17.601992 1.156350 0.000000 0.000000 0.000000 0.169531 0.008846 1.778684 1.428161 -5.337384 10.275894 2.104214 6.062321 -0.807428 5.700783 18.706280 71.494356 1.195500 17.670598 -0.023193 0.000000 0.000000 0.000000 
0.294992 32.744255 0.757341 0.000000 0.000000 0.000000 -1.782256 6.487825 0.906712 0.659580 7.092388 7.177358 22.172609 -2.501321 -3.632937 -26.412837 2.614320 -7.324666 -0.347291 0.204834 0.770379 0.000000 0.000000 0.000000 -1.697867 5.829182 0.454887 7.279518 -3.964570 -9.604742 21.210123 -5.162371 8.429333 -18.348574 -20.076871 4.735104 -5.511353 -0.197107 -1.657353 0.000000 0.000000 0.000000 -0.942924 4.905283 0.252655 -0.392851 -1.931923 -2.687742 -0.006584 -0.497627 1.746537 2.099541 -1.043191 0.142529 0.000000 0.000000 0.000000 -0.236189 -0.212270 1.468159 7.020789 2.203136 -1.758638 -2.971020 -1.363293 2.549313 0.000000 0.000000 0.000000 0.174233 0.296172 1.240428 6.919333 -25.547069 -5.157587 0.158574 -1.563576 -3.125397 8.191547 0.432829 -77.033892 -1.012074 -18.007176 0.895924 0.000000 0.000000 0.000000 0.064535 -0.028098 1.720394 1.306560 -5.154049 10.389153 2.407203 5.742168 -0.713026 5.051539 18.753266 71.212058 1.141680 18.451666 0.193878 0.000000 0.000000 0.000000 
0.331784 32.693596 0.760378 0.000000 0.000000 0.000000 -1.777792 6.118349 0.871646 0.702228 6.582475 7.040212 22.432175 -2.017966 -3.229338 -26.637039 2.534584 -7.392791 -0.324138 0.210753 0.705246 0.000000 0.000000 0.000000 -1.874319 5.553535 0.417492 7.020933 -4.364655 -9.607881 21.896849 -5.334854 8.445152 -18.569017 -19.764300 4.790448 -5.711640 -0.108585 -1.719364 0.000000 0.000000 0.000000 -1.083360 4.470021 0.145470 0.205474 -2.067850 -2.641457 -0.078698 -0.505800 1.735505 2.142052 -0.787355 0.033921 0.000000 0.000000 0.000000 -0.379157 -0.239513 1.473795 6.930533 2.271456 -1.672627 -2.835062 -1.655257 2.632455 0.000000 0.000000 0.000000 0.074889 0.291383 1.256788 6.995204 -25.484913 -4.611724 0.571521 -1.441491 -3.125790 7.836992 0.302233 -76.813632 -0.823901 -18.525384 0.662915 0.000000 0.000000 0.000000 0.009391 -0.033088 1.668752 1.187730 -4.947495 10.350581 2.491083 5.453874 -0.477940 4.189296 18.517124 70.551025 1.107255 18.747484 0.401426 0.000000 0.000000 0.000000 
